<svg xmlns="http://www.w3.org/2000/svg" version="1.1" xmlns:xlink="http://www.w3.org/1999/xlink" width="512" height="512"><svg xmlns="http://www.w3.org/2000/svg" version="1.1" xmlns:xlink="http://www.w3.org/1999/xlink" width="512" height="512"><svg xmlns="http://www.w3.org/2000/svg" viewBox="0 0 512 512">
  <defs>
    <linearGradient id="bg" x1="0%" y1="0%" x2="100%" y2="100%">
      <stop offset="0%" style="stop-color:#1d2646;stop-opacity:1"></stop>
      <stop offset="100%" style="stop-color:#0f172a;stop-opacity:1"></stop>
    </linearGradient>
    <linearGradient id="crown" x1="0%" y1="0%" x2="0%" y2="100%">
      <stop offset="0%" style="stop-color:#d4c47e;stop-opacity:1"></stop>
      <stop offset="100%" style="stop-color:#b8a85a;stop-opacity:1"></stop>
    </linearGradient>
  </defs>
  
  <!-- Background -->
  <rect width="512" height="512" rx="110" fill="url(#bg)"></rect>
  
  <!-- Crown (Rolex Style) -->
  <g transform="translate(256, 256) scale(3.5)">
    <!-- Base -->
    <path d="M -35 20 L -30 25 L 30 25 L 35 20 Z" fill="url(#crown)"></path>
    
    <!-- Center Point -->
    <path d="M 0 -35 L 8 -10 L -8 -10 Z" fill="url(#crown)"></path>
    
    <!-- Left Point -->
    <path d="M -25 -20 L -17 0 L -33 0 Z" fill="url(#crown)"></path>
    
    <!-- Right Point -->
    <path d="M 25 -20 L 33 0 L 17 0 Z" fill="url(#crown)"></path>
    
    <!-- Crown Body -->
    <path d="M -33 0 L -30 20 L -10 15 L 0 -10 L 10 15 L 30 20 L 33 0 L 25 -20 L 10 -5 L 0 -35 L -10 -5 L -25 -20 Z" fill="url(#crown)" opacity="0.95"></path>
    
    <!-- Highlights -->
    <path d="M 0 -35 L 0 -10" stroke="#f4e8c1" stroke-width="1.5" opacity="0.6"></path>
    <path d="M -25 -20 L -10 -5" stroke="#f4e8c1" stroke-width="1.5" opacity="0.6"></path>
    <path d="M 25 -20 L 10 -5" stroke="#f4e8c1" stroke-width="1.5" opacity="0.6"></path>
  </g>
</svg></svg><style>@media (prefers-color-scheme: light) { :root { filter: none; } }
@media (prefers-color-scheme: dark) { :root { filter: none; } }
</style></svg>